# xmcd CD database file
# Copyright (C) 1996 Ti Kan
#
# Track frame offsets:
# 	150
# 	17535
# 	33732
# 	49765
# 	65575
# 	80152
# 	95825
# 	111890
# 	128937
# 	144052
#
# Disc length: 2180 seconds
#
# Revision: 1
# Processed by: cddbd v1.4b41PL1 Copyright (c) Steve Scherf et al.
# Submitted via: DiscPlay 3.4.1
#
DISCID=8a08820a
DTITLE=Mathews, Wright, and King - Dream Seekers
DYEAR=1900
DGENRE=
TTITLE0=One Of These Days
TTITLE1=Every Step Of The Way
TTITLE2=I Got A Love
TTITLE3=She's Letting Go
TTITLE4=Don't Forget About Me
TTITLE5=Plain Jane
TTITLE6=The Truth Is Killin' Me
TTITLE7=Uncle Sam's Right Hand Man
TTITLE8=Dream Seeker
TTITLE9=Big Money
EXTD=
EXTT0=
EXTT1=
EXTT2=
EXTT3=
EXTT4=
EXTT5=
EXTT6=
EXTT7=
EXTT8=
EXTT9=
PLAYORDER=
